<?xml version="1.0" standalone="no"?>
<!DOCTYPE svg PUBLIC "-//W3C//DTD SVG 20010904//EN"
 "http://www.w3.org/TR/2001/REC-SVG-20010904/DTD/svg10.dtd">
<svg version="1.0" xmlns="http://www.w3.org/2000/svg"
 width="1024.000000pt" height="128.000000pt" viewBox="0 0 1024.000000 128.000000"
 preserveAspectRatio="xMidYMid meet">

<g transform="translate(0.000000,128.000000) scale(0.100000,-0.100000)"
fill="#000000" stroke="none">
<path d="M535 1265 c-137 -25 -235 -75 -333 -169 -75 -72 -104 -114 -50 -73
168 129 398 74 483 -114 25 -56 27 -70 23 -143 -5 -81 -5 -81 -156 -386 l-151
-305 47 -22 c26 -12 89 -29 141 -39 82 -15 105 -15 175 -5 254 39 454 208 529
446 33 105 30 282 -6 383 -36 103 -81 175 -158 253 -87 88 -212 151 -343 174
-103 17 -108 17 -201 0z"/>
</g>
</svg>
